<svg xmlns="http://www.w3.org/2000/svg" viewBox="0 0 800 520" role="img" aria-labelledby="title desc">
  <title id="title">Vehicle image placeholder</title>
  <desc id="desc">A restrained vehicle photography placeholder for xDealer demo records.</desc>
  <rect width="800" height="520" fill="#0b1728"/>
  <rect x="0" y="330" width="800" height="190" fill="#10243a"/>
  <path d="M132 320h54l58-82c16-22 42-35 69-35h184c27 0 53 13 69 35l58 82h45c26 0 47 21 47 47v44H84v-44c0-26 22-47 48-47z" fill="#f8fafc"/>
  <path d="M270 232h121v88H205l43-62c5-8 13-17 22-26zm150 0h76c16 0 31 8 40 21l48 67H420v-88z" fill="#dbeafe"/>
  <circle cx="229" cy="412" r="54" fill="#07111f"/>
  <circle cx="229" cy="412" r="24" fill="#18b982"/>
  <circle cx="584" cy="412" r="54" fill="#07111f"/>
  <circle cx="584" cy="412" r="24" fill="#18b982"/>
  <rect x="338" y="371" width="90" height="18" rx="9" fill="#cbd5e1"/>
  <rect x="120" y="351" width="78" height="22" rx="11" fill="#18b982"/>
  <rect x="612" y="351" width="78" height="22" rx="11" fill="#f8fafc"/>
</svg>
